# xmcd
#
# Track frame offsets:
# 150
# 19745
# 32067
# 47030
# 60317
# 74310
# 88807
# 101202
# 111695
# 126887
# 142192
# 153217
# 167782
# 180402
#
# Disc length: 2678 seconds
#
#
# Revision: 0
# Processed by: cddbd v1.5.1PL2 Copyright (c) Steve Scherf et al.
# Submitted via: FreeRIP 2.945 
#
DISCID=c50a740e
DTITLE=Kendra Ward/ Bob Bence - Dalcimer Country
DYEAR=1995
DGENRE=Folk
TTITLE0=Cottoneyed joe /Baldheaded end of the broom
TTITLE1=Worley's Waltz
TTITLE2=New River Train
TTITLE3=Star of Texas
TTITLE4=Listen to the Mockingbird
TTITLE5=Roses to Rubarb
TTITLE6=Rocky Top
TTITLE7=Dulciamer Country
TTITLE8=Chinese Breakdown
TTITLE9=Mockingbird Hill
TTITLE10=Cripple Creek/Greasy String
TTITLE11=Maggie
TTITLE12=Devils Dream
TTITLE13=Tennessee Watz
EXTD=
EXTT0=
EXTT1=
EXTT2=
EXTT3=
EXTT4=
EXTT5=
EXTT6=
EXTT7=
EXTT8=
EXTT9=
EXTT10=
EXTT11=
EXTT12=
EXTT13=
PLAYORDER=
